<?xml version="1.0" encoding="UTF-8"?>
<svg width="24px" height="22px" viewBox="0 0 24 22" version="1.1" xmlns="http://www.w3.org/2000/svg" xmlns:xlink="http://www.w3.org/1999/xlink">
    <!-- Generator: Sketch 52.3 (67297) - http://www.bohemiancoding.com/sketch -->
    <title>paquetes</title>
    <desc>Created with Sketch.</desc>
    <g id="DISEÑO-APP" stroke="none" stroke-width="1" fill="none" fill-rule="evenodd">
        <g id="paquetes" fill="#FFFFFF" fill-rule="nonzero">
            <path d="M20.6451613,3.55014436 L16.3303226,3.55014436 L16.3303226,1.03352092 C16.3303226,0.462694397 15.8681935,3.99680289e-13 15.2980645,3.99680289e-13 L8.69677419,3.99680289e-13 C8.12664516,3.99680289e-13 7.66451613,0.462694397 7.66451613,1.03352092 L7.66451613,3.55014436 L3.35483871,3.55014436 C1.80645161,3.55014436 0,4.39763151 0,6.78506484 L0,17.8850795 C0,20.2725128 1.80645161,21.12 3.35483871,21.12 L20.6451613,21.12 C23.1225806,21.12 24,19.3785172 24,17.8850795 L24,6.79023244 C24,4.39763151 22.1935484,3.55014436 20.6451613,3.55014436 Z M8.70193548,1.03868852 L15.2980645,1.03352092 L15.2980645,3.55014436 L8.70193548,3.55014436 L8.70193548,1.03868852 Z M20.6451613,20.0813115 L3.35483871,20.0813115 C2.65806452,20.0813115 1.03225806,19.8642721 1.03225806,17.8799119 L1.03225806,14.2315831 L8.77419355,14.2315831 C8.77212903,14.2694358 8.77212903,14.3074177 8.77419355,14.3452704 L8.77419355,15.9420602 C8.77412903,16.5756731 9.28709677,17.089333 9.91987097,17.0893976 C9.92509677,17.0893976 9.93025806,17.089333 9.93548387,17.0892684 L14.0645161,17.0892684 C14.6973548,17.0892684 15.2103226,16.5756731 15.2103226,15.9420602 L15.2103226,14.3452704 C15.2123871,14.3074177 15.2123871,14.2694358 15.2103226,14.2315831 L22.9522581,14.2315831 L22.9677419,17.8799119 C22.9677419,18.5413653 22.7406452,20.0813115 20.6451613,20.0813115 Z M9.93548387,16.0557475 C9.87277419,16.0557475 9.82193548,16.0048466 9.82193548,15.9420602 L9.82193548,14.3452704 C9.82193548,14.282484 9.87277419,14.2315831 9.93548387,14.2315831 L14.0645161,14.2315831 C14.1272258,14.2315831 14.1780645,14.282484 14.1780645,14.3452704 L14.1780645,15.9420602 C14.1780645,16.0048466 14.1272258,16.0557475 14.0645161,16.0557475 L9.93548387,16.0557475 Z M22.9677419,13.1980621 L1.03225806,13.1980621 L1.03225806,6.79023244 C1.03225806,4.80070467 2.65806452,4.58883288 3.35483871,4.58883288 L20.6451613,4.58883288 C21.3419355,4.58883288 22.9677419,4.80070467 22.9677419,6.79023244 L22.9677419,13.1980621 Z" id="Shape"></path>
        </g>
    </g>
</svg>